<svg width="19" height="19" viewBox="0 0 19 19" fill="none" xmlns="http://www.w3.org/2000/svg">
<path d="M9.50004 15.8333C6.00879 15.8333 3.16671 12.9913 3.16671 9.50001C3.16671 6.00876 6.00879 3.16668 9.50004 3.16668C12.9913 3.16668 15.8334 6.00876 15.8334 9.50001C15.8334 12.9913 12.9913 15.8333 9.50004 15.8333ZM9.50004 1.58334C5.12212 1.58334 1.58337 5.12209 1.58337 9.50001C1.58337 13.8779 5.12212 17.4167 9.50004 17.4167C13.878 17.4167 17.4167 13.8779 17.4167 9.50001C17.4167 5.12209 13.878 1.58334 9.50004 1.58334ZM11.5505 6.33334L9.50004 8.38376L7.44962 6.33334L6.33337 7.44959L8.38379 9.50001L6.33337 11.5504L7.44962 12.6667L9.50004 10.6163L11.5505 12.6667L12.6667 11.5504L10.6163 9.50001L12.6667 7.44959L11.5505 6.33334Z" fill="#C5C5C5" fill-opacity="0.61"/>
</svg>
