<svg width="228" height="240" viewBox="0 0 228 240" fill="none" xmlns="http://www.w3.org/2000/svg">
<path d="M88.0814 34.5C96.9341 19.1667 119.066 19.1667 127.919 34.5L192.004 145.5C200.857 160.833 189.791 180 172.086 180H43.9141C26.2087 180 15.1428 160.833 23.9955 145.5L88.0814 34.5Z" fill="#4A22D8"/>
<path d="M87.6251 66.9045C96.2345 50.4654 119.765 50.4653 128.375 66.9044L162.246 131.579C170.266 146.893 159.158 165.25 141.871 165.25H74.1287C56.8415 165.25 45.7335 146.893 53.7538 131.579L87.6251 66.9045Z" fill="#643CF5"/>
<path d="M87.0675 97.535C95.6399 80.9482 119.36 80.9482 127.933 97.5349L138.22 117.44C146.132 132.749 135.02 151 117.787 151H97.2126C79.9802 151 68.8682 132.749 76.7801 117.44L87.0675 97.535Z" fill="#8064E9"/>
</svg>
